<?xml version="1.0" standalone="no"?>
<svg width="64" height="64" viewBox="0 0 512 384" version="1.1" xmlns="http://www.w3.org/2000/svg">
  <path d="M413 116c2 -2 3 -4 3 -6s-1 -4 -3 -6l-21 -22c-2 -2 -4 -2 -6 -2s-4 0 -6 2l-76 77l-76 -77c-2 -2 -4 -2 -6 -2s-4 0 -6 2l-21 22c-2 2 -3 4 -3 6s1 4 3 6l76 76l-77 76c-3 3 -3 9 0 12l22 22c2 2 4 2 6 2s4 0 6 -2l76 -76l76 76c2 2 4 2 6 2s4 0 6 -2l22 -22 c3 -3 3 -9 0 -12l-77 -76zM499 354c9 -9 13 -20 13 -33v-256c0 -27 -20 -49 -46 -49h-298c-13 0 -24 3 -34 9c-9 5 -16 11 -23 20v0l-1 1l-110 146l110 148c14 19 34 28 58 28h298c13 0 24 -5 33 -14zM480 65v256c0 9 -5 15 -14 15h-298c-11 0 -22 -3 -32 -16l-96 -128 l96 -128c8 -10 17 -16 32 -16h298c9 0 14 8 14 17z" transform="matrix(1,0,0,-1,0,384)"/>
</svg>