<?xml version="1.0" standalone="no"?>
<svg width="64" height="64" viewBox="0 0 1024 768" version="1.1" xmlns="http://www.w3.org/2000/svg">
  <path d="M789 640q-96 0 -165 -69.5t-69 -165.5q0 -80 55 -149h-196q55 69 55 149q0 96 -69 165.5t-165 69.5t-165.5 -69.5t-69.5 -165.5t69.5 -165t165.5 -69h554q96 0 165.5 69t69.5 165t-69.5 165.5t-165.5 69.5zM234.5 256q-60.5 0 -105 44.5t-44.5 105t44.5 105t105 44.5    t105 -44.5t44.5 -105t-44.5 -105t-105 -44.5zM789.5 256q-60.5 0 -105 44.5t-44.5 105t44.5 105t105 44.5t105 -44.5t44.5 -105t-44.5 -105t-105 -44.5z" transform="matrix(1,0,0,-1,0,768)"/>
</svg>