<?xml version="1.0" standalone="no"?>
<svg width="64" height="64" viewBox="0 0 384 384" version="1.1" xmlns="http://www.w3.org/2000/svg">
  <path d="M331 107c30 0 53 -24 53 -54s-23 -53 -53 -53s-54 23 -54 53s24 54 54 54zM192 107c30 0 53 -24 53 -54s-23 -53 -53 -53s-53 23 -53 53s23 54 53 54zM53 107c30 0 54 -24 54 -54s-24 -53 -54 -53s-53 23 -53 53s23 54 53 54zM331 245c30 0 53 -23 53 -53 s-23 -53 -53 -53s-54 23 -54 53s24 53 54 53zM192 245c30 0 53 -23 53 -53s-23 -53 -53 -53s-53 23 -53 53s23 53 53 53zM53 245c30 0 54 -23 54 -53s-24 -53 -54 -53s-53 23 -53 53s23 53 53 53zM331 277c-30 0 -54 24 -54 54s24 53 54 53s53 -23 53 -53s-23 -54 -53 -54z M192 384c30 0 53 -23 53 -53s-23 -54 -53 -54s-53 24 -53 54s23 53 53 53zM53 384c30 0 54 -23 54 -53s-24 -54 -54 -54s-53 24 -53 54s23 53 53 53z" transform="matrix(1,0,0,-1,0,384)"/>
</svg>